name ./resultDataOpenSim/trcMotMarkerGrf/sub09/grf-14-02.mot
datacolumns 19
datarows 12
range 0.99200000 1.03600000
endheader

                time	     ground_force_vx	     ground_force_vy	     ground_force_vz	     ground_force_px	     ground_force_py	     ground_force_pz	   l_ground_force_vx	   l_ground_force_vy	   l_ground_force_vz	   l_ground_force_px	   l_ground_force_py	   l_ground_force_pz	     ground_torque_x	     ground_torque_y	     ground_torque_z	   l_ground_torque_x	   l_ground_torque_y	   l_ground_torque_z	
          0.99200000	          0.00000000	          0.00000000	          0.00000000	          0.00000000	          0.00000000	          0.00000000	         16.59601146	        429.53179937	         -6.42363113	          0.15140229	         -0.07500000	          0.03751258	          0.00000000	          0.00000000	          0.00000000	          0.00000000	         -2.01847136	          0.00000000	
          0.99600000	          0.00000000	          0.00000000	          0.00000000	          0.00000000	          0.00000000	          0.00000000	         17.85570883	        434.33093145	         -6.27169127	          0.15165147	         -0.07500000	          0.03786024	          0.00000000	          0.00000000	          0.00000000	          0.00000000	         -2.09772616	          0.00000000	
          1.00000000	          0.00000000	          0.00000000	          0.00000000	          0.00000000	          0.00000000	          0.00000000	         19.24579836	        439.84053796	         -6.03707654	          0.15202920	         -0.07500000	          0.03825594	          0.00000000	          0.00000000	          0.00000000	          0.00000000	         -2.18005977	          0.00000000	
          1.00400000	          0.00000000	          0.00000000	          0.00000000	          0.00000000	          0.00000000	          0.00000000	         20.81580818	        446.07366350	         -5.74703599	          0.15258814	         -0.07500000	          0.03873708	          0.00000000	          0.00000000	          0.00000000	          0.00000000	         -2.26515890	          0.00000000	
          1.00800000	          0.00000000	          0.00000000	          0.00000000	          0.00000000	          0.00000000	          0.00000000	         22.63554533	        453.07725923	         -5.40679805	          0.15333435	         -0.07500000	          0.03931250	          0.00000000	          0.00000000	          0.00000000	          0.00000000	         -2.35104691	          0.00000000	
          1.01200000	          0.00000000	          0.00000000	          0.00000000	          0.00000000	          0.00000000	          0.00000000	         24.78890534	        460.88032509	         -4.97880377	          0.15422997	         -0.07500000	          0.03994725	          0.00000000	          0.00000000	          0.00000000	          0.00000000	         -2.43478482	          0.00000000	
          1.01600000	          0.00000000	          0.00000000	          0.00000000	          0.00000000	          0.00000000	          0.00000000	         27.35227559	        469.46476417	         -4.41625500	          0.15518068	         -0.07500000	          0.04057917	          0.00000000	          0.00000000	          0.00000000	          0.00000000	         -2.51360504	          0.00000000	
          1.02000000	          0.00000000	          0.00000000	          0.00000000	          0.00000000	          0.00000000	          0.00000000	         30.35955674	        478.74753063	         -3.71889828	          0.15606793	         -0.07500080	          0.04116282	          0.00000000	          0.00000000	          0.00000000	          0.00000000	         -2.58596163	          0.00000000	
          1.02400000	          0.00000000	          0.00000000	          0.00000000	          0.00000000	          0.00000000	          0.00000000	         33.78427516	        488.53822365	         -2.94789642	          0.15679505	         -0.07500037	          0.04167313	          0.00000000	          0.00000000	          0.00000000	          0.00000000	         -2.65199919	          0.00000000	
          1.02800000	          0.00000000	          0.00000000	          0.00000000	          0.00000000	          0.00000000	          0.00000000	         37.56121563	        498.52734768	         -2.19290359	          0.15731119	         -0.07500077	          0.04209157	          0.00000000	          0.00000000	          0.00000000	          0.00000000	         -2.71329124	          0.00000000	
          1.03200000	          0.00000000	          0.00000000	          0.00000000	          0.00000000	          0.00000000	          0.00000000	         41.61669501	        508.36929357	         -1.51960643	          0.15764474	         -0.07500100	          0.04241129	          0.00000000	          0.00000000	          0.00000000	          0.00000000	         -2.77208221	          0.00000000	
          1.03600000	          0.00000000	          0.00000000	          0.00000000	          0.00000000	          0.00000000	          0.00000000	         45.87686351	        517.80196488	         -0.93442489	          0.15791307	         -0.07500100	          0.04266004	          0.00000000	          0.00000000	          0.00000000	          0.00000000	         -2.83047298	          0.00000000	
